<svg xmlns="http://www.w3.org/2000/svg" width="900" height="1600" viewBox="0 0 900 1600"><rect width="900" height="1600" fill="#e9e4d9"/><g transform="translate(36.0 386.0) scale(1.4786)" fill="none" stroke="#8c8574" stroke-width="5" stroke-linecap="round" stroke-linejoin="round"><rect x="55" y="15" width="450" height="530" rx="34"/>
        <path d="M80 60 q20 -18 40 0 M430 70 q20 -18 40 0" stroke="#c9c1b0" stroke-dasharray="8 10"/>
        <circle cx="280" cy="185" r="62"/>
        <path d="M140 545 C150 375 205 312 280 312 C355 312 410 375 420 545" fill="#ddd6c6"/>
        <path d="M232 300 C248 318 312 318 328 300"/>
        <path d="M205 345 C165 285 185 205 228 178 M355 345 C395 285 375 205 332 178"/>
        <circle cx="280" cy="352" r="9" fill="#8c8574"/></g></svg>
