<svg xmlns="http://www.w3.org/2000/svg" width="900" height="1600" viewBox="0 0 900 1600"><rect width="900" height="1600" fill="#e9e4d9"/><g transform="translate(36.0 386.0) scale(1.4786)" fill="none" stroke="#8c8574" stroke-width="5" stroke-linecap="round" stroke-linejoin="round"><rect x="20" y="20" width="520" height="330" rx="8" stroke="#c9c1b0"/>
        <path d="M280 20 V350" stroke="#c9c1b0"/>
        <line x1="0" y1="430" x2="560" y2="430"/>
        <circle cx="210" cy="215" r="64"/>
        <path d="M95 430 C105 330 150 295 210 292 C270 295 315 330 325 430" fill="#ddd6c6"/>
        <path d="M265 250 C300 290 305 350 285 430"/>
        <circle cx="210" cy="325" r="8" fill="#8c8574"/>
        <path d="M390 340 H470 L460 430 H400 Z" fill="#ddd6c6"/>
        <path d="M470 360 C500 360 500 400 466 400"/>
        <path d="M410 320 q10 -20 0 -40 M440 320 q10 -20 0 -40" stroke="#c9c1b0"/></g></svg>
